<svg xmlns="http://www.w3.org/2000/svg" viewBox="0 0 1200 675" role="img" aria-labelledby="title description">
  <title id="title">Trackie placeholder thumbnail</title>
  <desc id="description">A simple job application pipeline interface labelled Trackie.</desc>
  <rect width="1200" height="675" fill="#182238" />
  <rect x="64" y="56" width="1072" height="563" fill="#f5f1e8" />
  <rect x="64" y="56" width="252" height="563" fill="#dce5f7" />
  <text x="104" y="126" fill="#182238" font-family="Arial, sans-serif" font-size="42" font-weight="700">TRACKIE</text>
  <text x="104" y="166" fill="#41506c" font-family="Arial, sans-serif" font-size="18">JOB SEARCH WORKSPACE</text>
  <rect x="104" y="224" width="172" height="42" fill="#3157d5" />
  <text x="126" y="252" fill="#ffffff" font-family="Arial, sans-serif" font-size="17" font-weight="700">APPLICATIONS</text>
  <text x="104" y="320" fill="#41506c" font-family="Arial, sans-serif" font-size="18">KANBAN BOARD</text>
  <text x="104" y="368" fill="#41506c" font-family="Arial, sans-serif" font-size="18">CALENDAR</text>
  <text x="104" y="416" fill="#41506c" font-family="Arial, sans-serif" font-size="18">ANALYTICS</text>
  <text x="356" y="126" fill="#182238" font-family="Arial, sans-serif" font-size="34" font-weight="700">Application pipeline</text>
  <rect x="356" y="174" width="226" height="374" fill="#e7e9ee" />
  <rect x="606" y="174" width="226" height="374" fill="#e7e9ee" />
  <rect x="856" y="174" width="226" height="374" fill="#e7e9ee" />
  <text x="380" y="214" fill="#182238" font-family="Arial, sans-serif" font-size="18" font-weight="700">APPLIED</text>
  <text x="630" y="214" fill="#182238" font-family="Arial, sans-serif" font-size="18" font-weight="700">INTERVIEW</text>
  <text x="880" y="214" fill="#182238" font-family="Arial, sans-serif" font-size="18" font-weight="700">OFFER</text>
  <rect x="380" y="242" width="178" height="92" fill="#ffffff" />
  <rect x="380" y="354" width="178" height="92" fill="#ffffff" />
  <rect x="630" y="242" width="178" height="92" fill="#ffffff" />
  <rect x="880" y="242" width="178" height="92" fill="#ffffff" />
  <rect x="398" y="263" width="108" height="12" fill="#3157d5" />
  <rect x="398" y="290" width="142" height="9" fill="#b5bdca" />
  <rect x="398" y="375" width="92" height="12" fill="#3157d5" />
  <rect x="398" y="402" width="142" height="9" fill="#b5bdca" />
  <rect x="648" y="263" width="120" height="12" fill="#3157d5" />
  <rect x="648" y="290" width="142" height="9" fill="#b5bdca" />
  <rect x="898" y="263" width="84" height="12" fill="#3157d5" />
  <rect x="898" y="290" width="142" height="9" fill="#b5bdca" />
  <text x="1082" y="596" fill="#41506c" font-family="Arial, sans-serif" font-size="14" text-anchor="end">PLACEHOLDER</text>
</svg>
